# xmcd
#
# Track frame offsets: 
#        187
#        12537
#        24525
#        36770
#        55587
#        69050
#        82660
#        93390
#        106067
#        115737
#        127962
#        142542
#        153317
#        168587
#        181957
#        195362
#        208745
#        220325
#        233055
#        244750
#        258280
#        275150
#        285282
#        296580
#
# Disc length: 4083 seconds
#
# Revision: 0
# Processed by: cddbd v1.5.1PL0 Copyright (c) Steve Scherf et al.
# Submitted via: ExactAudioCopy v0.95a5
#
DISCID=3d0ff118
DTITLE=Various Artist - 30 Years of No. 1 Country Hits Disc 4
DYEAR=1990
DGENRE=Country
TTITLE0=Eleven Roses
TTITLE1=One's On The Way
TTITLE2=Funny Face
TTITLE3=Old Dogs, Children and Watermelon Wine
TTITLE4=Come Live With Me
TTITLE5=You've Never Been This Far Before
TTITLE6=Pure Love
TTITLE7=I'm A Ramblin Man
TTITLE8=When Will I Be Loved
TTITLE9=If We Make It Through December
TTITLE10=Rhinestone Cowboy
TTITLE11=Heaven's Just A Sin Away
TTITLE12=(Hey Won't You Play) Another Somebody Done Somebody Wrong Son
TTITLE12=g
TTITLE13=Here You Come Again
TTITLE14=Good Hearted Woman
TTITLE15=Cherokee Maiden
TTITLE16=Don't It Make My Brown Eyes Blue
TTITLE17=Moody Blue
TTITLE18=Backside Of Thirty
TTITLE19=Two Doors Down
TTITLE20=Nobody Likes Sad Songs
TTITLE21=Do You Know You Are My Sunshine?
TTITLE22=It Must Be Love
TTITLE23=Somebody Loves You Honey
EXTD=
EXTT0=
EXTT1=
EXTT2=
EXTT3=
EXTT4=
EXTT5=
EXTT6=
EXTT7=
EXTT8=
EXTT9=
EXTT10=
EXTT11=
EXTT12=
EXTT13=
EXTT14=
EXTT15=
EXTT16=
EXTT17=
EXTT18=
EXTT19=
EXTT20=
EXTT21=
EXTT22=
EXTT23=
PLAYORDER=
